<?xml version="1.0" encoding="UTF-8"?>
<!DOCTYPE svg PUBLIC "-//W3C//DTD SVG 1.1//EN" "http://www.w3.org/Graphics/SVG/1.1/DTD/svg11.dtd">
<!-- Creator: CorelDRAW -->
<svg xmlns="http://www.w3.org/2000/svg" xml:space="preserve" width="6.82666in" height="6.82666in" style="shape-rendering:geometricPrecision; text-rendering:geometricPrecision; image-rendering:optimizeQuality; fill-rule:evenodd; clip-rule:evenodd"
viewBox="0 0 6.82666 6.82666"
 xmlns:xlink="http://www.w3.org/1999/xlink">
 <defs>
  <style type="text/css">
   <![CDATA[
    .fil2 {fill:none}
    .fil1 {fill:#1976D2}
    .fil7 {fill:#212121}
    .fil0 {fill:#42A5F5}
    .fil6 {fill:#E1F5FE}
    .fil3 {fill:#522D0C;fill-rule:nonzero}
    .fil4 {fill:#5E3B1C;fill-rule:nonzero}
    .fil8 {fill:#673B15;fill-rule:nonzero}
    .fil5 {fill:#78502E;fill-rule:nonzero}
   ]]>
  </style>
   <clipPath id="id0">
    <path d="M3.41333 -3.93701e-006c1.88513,0 3.41333,1.5282 3.41333,3.41333 0,1.88513 -1.5282,3.41333 -3.41333,3.41333 -1.88513,0 -3.41333,-1.5282 -3.41333,-3.41333 0,-1.88513 1.5282,-3.41333 3.41333,-3.41333z"/>
   </clipPath>
 </defs>
 <g id="Layer_x0020_1">
  <metadata id="CorelCorpID_0Corel-Layer"/>
  <path class="fil0" d="M3.41333 -3.93701e-006c1.88513,0 3.41333,1.5282 3.41333,3.41333 0,1.88513 -1.5282,3.41333 -3.41333,3.41333 -1.88513,0 -3.41333,-1.5282 -3.41333,-3.41333 0,-1.88513 1.5282,-3.41333 3.41333,-3.41333z"/>
  <g style="clip-path:url(#id0)">
   <g id="_637651672">
    <g>
     <polygon id="_2169335521" class="fil1" points="2.68383,2.70838 6.4701,6.49465 6.4701,6.4946 6.4701,6.49455 6.4701,6.4945 6.4701,6.49444 6.4701,6.49439 6.4701,6.49434 6.4701,6.49429 6.4701,6.49424 2.68383,2.70796 2.68383,2.70802 2.68383,2.70807 2.68383,2.70812 2.68383,2.70817 2.68383,2.70822 2.68383,2.70828 2.68383,2.70833 "/>
     <polygon id="_216933624" class="fil1" points="2.35831,3.13475 6.14458,6.92102 5.82546,7.30153 2.03919,3.51526 "/>
     <polygon id="_216934296" class="fil1" points="2.03919,3.51526 5.82546,7.30153 5.81974,7.30835 2.03347,3.52208 "/>
     <polygon id="_216934368" class="fil1" points="2.20225,4.89576 5.98852,8.68204 5.98763,8.6897 2.20137,4.90343 "/>
     <polygon id="_216935136" class="fil1" points="2.20137,4.90343 5.98763,8.6897 5.98166,8.69462 2.19539,4.90835 "/>
     <polygon id="_216934992" class="fil1" points="2.19539,4.90835 5.98166,8.69462 5.77294,8.86616 1.98668,5.07989 "/>
     <polygon id="_216935160" class="fil1" points="1.98668,5.07989 5.77294,8.86616 5.76974,8.86828 5.76628,8.86969 5.76267,8.87038 5.75901,8.87037 5.75543,8.86967 5.75201,8.86829 5.74888,8.86623 1.96261,5.07996 1.96574,5.08202 1.96916,5.0834 1.97274,5.0841 1.9764,5.08411 1.98002,5.08342 1.98348,5.08201 "/>
     <polygon id="_216935400" class="fil1" points="2.71562,3.37742 6.50189,7.16369 6.14458,6.92102 2.35831,3.13475 "/>
     <polygon id="_216934800" class="fil1" points="2.79657,3.98113 6.58283,7.7674 6.1188,7.54658 2.33254,3.76031 "/>
     <polygon id="_216934896" class="fil1" points="2.03347,3.52208 5.81974,7.30835 5.81086,7.30835 2.02459,3.52208 "/>
     <polygon id="_216935208" class="fil1" points="2.02459,3.52208 5.81086,7.30835 5.49419,7.30854 1.70792,3.52227 "/>
     <polygon id="_216935304" class="fil1" points="1.70792,3.52227 5.49419,7.30854 5.49036,7.30815 5.48679,7.30704 5.48356,7.30528 5.48073,7.30296 1.69446,3.51669 1.69729,3.51901 1.70052,3.52077 1.70409,3.52188 "/>
     <polygon id="_216935352" class="fil1" points="2.33254,3.76031 6.1188,7.54658 5.98852,8.68204 2.20225,4.89576 "/>
     <polygon id="_216934776" class="fil1" points="2.8357,3.34333 6.62197,7.1296 6.62514,7.1331 6.62793,7.13687 6.63032,7.14086 6.63231,7.14505 6.63389,7.1494 6.63506,7.15388 6.63578,7.15846 6.63607,7.16311 6.6359,7.16779 6.63528,7.17247 6.63418,7.17712 6.63259,7.1817 6.63052,7.18618 2.84426,3.39991 2.84633,3.39543 2.84791,3.39085 2.84901,3.3862 2.84963,3.38152 2.8498,3.37684 2.84952,3.37219 2.84879,3.36761 2.84763,3.36313 2.84605,3.35878 2.84406,3.35459 2.84166,3.35059 2.83887,3.34683 "/>
     <polygon id="_216936120" class="fil1" points="2.84426,3.39991 6.63052,7.18618 6.628,7.19044 6.62513,7.19434 6.62192,7.19788 6.61842,7.20105 6.61466,7.20384 6.61067,7.20624 6.60648,7.20823 6.60213,7.20981 6.59764,7.21097 6.59306,7.2117 6.58841,7.21198 6.58373,7.21181 6.57906,7.21119 6.57441,7.21009 6.56983,7.20851 6.56534,7.20644 2.77907,3.42017 2.78356,3.42224 2.78814,3.42382 2.79279,3.42492 2.79746,3.42554 2.80215,3.42571 2.80679,3.42543 2.81137,3.4247 2.81586,3.42354 2.82021,3.42196 2.8244,3.41996 2.82839,3.41757 2.83215,3.41478 2.83565,3.41161 2.83886,3.40807 2.84174,3.40417 "/>
     <polygon id="_216935928" class="fil1" points="2.77907,3.42017 6.56534,7.20644 6.56474,7.20611 6.56413,7.20578 6.56354,7.20544 6.56295,7.20509 6.56237,7.20473 6.56181,7.20437 6.56125,7.20401 6.56071,7.20365 2.77444,3.41737 2.77498,3.41774 2.77554,3.4181 2.77611,3.41846 2.77669,3.41881 2.77727,3.41917 2.77787,3.41951 2.77847,3.41984 "/>
     <polygon id="_216935784" class="fil1" points="2.77444,3.41737 6.56071,7.20365 6.50193,7.16372 2.71566,3.37745 "/>
     <polygon id="_216935592" class="fil1" points="2.71566,3.37745 6.50193,7.16372 6.50336,7.17896 6.50482,7.19419 6.50631,7.20941 6.50783,7.22461 6.50937,7.2398 6.51095,7.25497 6.51256,7.27013 6.51419,7.28528 6.51585,7.30041 6.51755,7.31552 6.51927,7.33061 6.52102,7.34569 6.5228,7.36074 6.5246,7.37578 6.52644,7.39079 6.5283,7.40579 6.53019,7.42076 6.53211,7.4357 6.53406,7.45063 6.53603,7.46554 6.53804,7.48041 6.54006,7.49526 6.54212,7.51009 6.5442,7.52489 6.54631,7.53966 6.54845,7.5544 6.55062,7.56911 6.55281,7.5838 6.55503,7.59845 6.55727,7.61307 6.55954,7.62767 6.56184,7.64222 2.77557,3.85595 2.77328,3.84139 2.771,3.8268 2.76876,3.81218 2.76654,3.79753 2.76435,3.78284 2.76219,3.76813 2.76005,3.75339 2.75794,3.73861 2.75585,3.72381 2.7538,3.70899 2.75177,3.69414 2.74976,3.67926 2.74779,3.66436 2.74584,3.64943 2.74393,3.63448 2.74203,3.61952 2.74017,3.60452 2.73833,3.5895 2.73653,3.57447 2.73475,3.55941 2.733,3.54434 2.73128,3.52924 2.72959,3.51413 2.72792,3.49901 2.72629,3.48386 2.72468,3.4687 2.72311,3.45353 2.72156,3.43834 2.72004,3.42313 2.71855,3.40792 2.71709,3.39269 "/>
     <polygon id="_216936072" class="fil1" points="2.89647,3.90144 6.68274,7.68772 6.68651,7.69202 6.68984,7.69665 6.6927,7.70156 6.69509,7.70672 6.69698,7.71211 6.69835,7.71766 6.69918,7.72336 6.69945,7.72915 6.69914,7.73501 6.69824,7.7409 6.69672,7.74678 2.91045,3.9605 2.91197,3.95463 2.91287,3.94874 2.91318,3.94288 2.91291,3.93709 2.91208,3.93139 2.91071,3.92583 2.90883,3.92045 2.90644,3.91529 2.90357,3.91037 2.90024,3.90575 "/>
     <polygon id="_216935616" class="fil1" points="2.91045,3.9605 6.69672,7.74678 6.69461,7.75247 6.69198,7.75781 6.68888,7.7628 6.68534,7.7674 6.68141,7.7716 6.6771,7.77537 6.67248,7.77871 6.66756,7.78158 6.6624,7.78397 6.65702,7.78586 6.65146,7.78723 6.64576,7.78806 6.63997,7.78833 6.63411,7.78802 6.62822,7.7871 6.62233,7.78557 2.83607,3.9993 2.84195,4.00083 2.84784,4.00174 2.8537,4.00206 2.8595,4.00179 2.86519,4.00096 2.87075,3.99959 2.87613,3.9977 2.8813,3.99531 2.88621,3.99244 2.89083,3.9891 2.89514,3.98533 2.89907,3.98113 2.90261,3.97653 2.90571,3.97154 2.90834,3.9662 "/>
     <polygon id="_216935952" class="fil1" points="2.83607,3.9993 6.62233,7.78557 6.62136,7.78526 6.62038,7.78492 6.61939,7.78456 6.6184,7.78417 6.61743,7.78377 6.61646,7.78335 6.61553,7.78294 6.61462,7.78252 2.82835,3.99625 2.82926,3.99667 2.8302,3.99708 2.83116,3.9975 2.83213,3.9979 2.83312,3.99828 2.83411,3.99865 2.83509,3.99899 "/>
     <polygon id="_216935736" class="fil1" points="2.82835,3.99625 6.61462,7.78252 6.58293,7.76744 2.79667,3.98117 "/>
     <polygon id="_216936192" class="fil1" points="2.79667,3.98117 6.58293,7.76744 6.58283,7.7674 2.79657,3.98113 "/>
     <polygon id="_216936240" class="fil1" points="2.3677,1.93665 6.15397,5.72293 6.22818,6.01985 2.44191,2.23358 "/>
     <polygon id="_216936336" class="fil1" points="2.86636,2.55424 6.65263,6.34051 6.64858,6.34701 6.644,6.35296 6.63891,6.35833 6.63339,6.36312 6.62746,6.36731 6.6212,6.37089 6.61465,6.37383 6.60785,6.37614 6.60087,6.37778 6.59375,6.37876 6.58654,6.37905 6.5793,6.37863 6.57207,6.3775 6.56491,6.37565 6.55787,6.37305 6.55099,6.36969 2.76472,2.58341 2.7716,2.58678 2.77864,2.58938 2.7858,2.59123 2.79303,2.59236 2.80028,2.59278 2.80748,2.59248 2.8146,2.59151 2.82159,2.58987 2.82838,2.58756 2.83493,2.58461 2.8412,2.58104 2.84712,2.57685 2.85265,2.57206 2.85773,2.56669 2.86231,2.56074 "/>
     <polygon id="_216936360" class="fil1" points="2.76472,2.58341 6.55099,6.36969 6.54902,6.36854 6.54708,6.36733 6.54518,6.36606 6.54331,6.36474 6.54149,6.36337 6.53974,6.36197 6.53804,6.36055 6.53643,6.35911 2.75016,2.57284 2.75178,2.57428 2.75347,2.5757 2.75522,2.5771 2.75704,2.57846 2.75891,2.57979 2.76081,2.58106 2.76276,2.58227 "/>
     <polygon id="_216936456" class="fil1" points="2.75016,2.57284 6.53643,6.35911 6.51363,6.33799 2.72737,2.55172 "/>
     <polygon id="_216937032" class="fil1" points="2.72737,2.55172 6.51363,6.33799 6.20048,6.04775 2.41421,2.26148 "/>
     <polygon id="_216936288" class="fil1" points="2.41421,2.26148 6.20048,6.04775 6.19451,6.04217 2.40824,2.25589 "/>
     <polygon id="_216936696" class="fil1" points="2.36194,1.92711 6.14821,5.71339 6.1507,5.7161 6.15265,5.7193 6.15397,5.72293 2.3677,1.93665 2.36639,1.93303 2.36444,1.92983 "/>
     <polygon id="_216936408" class="fil1" points="2.855,2.46632 6.64127,6.25259 6.64606,6.25812 6.65025,6.26404 6.65383,6.2703 6.65678,6.27686 6.65909,6.28365 6.66074,6.29063 6.66172,6.29775 6.66201,6.30496 6.66159,6.3122 6.66046,6.31943 6.6586,6.32659 6.656,6.33363 6.65263,6.34051 2.86636,2.55424 2.86973,2.54736 2.87233,2.54032 2.8742,2.53316 2.87533,2.52593 2.87574,2.51869 2.87545,2.51148 2.87447,2.50436 2.87282,2.49738 2.87052,2.49059 2.86757,2.48403 2.86398,2.47777 2.85979,2.47185 "/>
     <polygon id="_216936960" class="fil1" points="3.6988,2.28564 7.48506,6.07191 7.47682,6.06974 7.46852,6.06763 7.46017,6.06559 7.45178,6.0636 7.44333,6.06168 7.43484,6.05982 7.4263,6.05803 7.41772,6.0563 7.40909,6.05464 7.40041,6.05304 7.39169,6.05151 7.38292,6.05005 7.37411,6.04865 7.36526,6.04732 7.35637,6.04606 7.34744,6.04486 7.33847,6.04374 7.32946,6.04268 7.32041,6.0417 7.31132,6.04078 7.3022,6.03993 7.29304,6.03916 7.28384,6.03846 7.27461,6.03783 7.26535,6.03727 7.25605,6.03678 7.24672,6.03637 7.23735,6.03603 7.22796,6.03577 7.21854,6.03558 7.20908,6.03547 7.1996,6.03543 3.41333,2.24916 3.42281,2.2492 3.43227,2.24931 3.44169,2.2495 3.45109,2.24976 3.46045,2.2501 3.46978,2.25051 3.47908,2.251 3.48834,2.25156 3.49757,2.25219 3.50677,2.25289 3.51593,2.25366 3.52506,2.25451 3.53414,2.25543 3.54319,2.25641 3.5522,2.25746 3.56117,2.25859 3.57011,2.25979 3.579,2.26105 3.58785,2.26238 3.59665,2.26378 3.60542,2.26524 3.61414,2.26677 3.62282,2.26837 3.63145,2.27003 3.64004,2.27176 3.64857,2.27355 3.65707,2.27541 3.66551,2.27733 3.67391,2.27931 3.68225,2.28136 3.69055,2.28347 "/>
     <polygon id="_216936984" class="fil1" points="3.41333,2.24916 7.1996,6.03543 7.19017,6.03547 7.18077,6.03558 7.1714,6.03577 7.16206,6.03603 7.15275,6.03636 7.14347,6.03677 7.13422,6.03725 7.12501,6.0378 7.11583,6.03842 7.10669,6.03912 7.09757,6.03988 7.0885,6.04072 7.07946,6.04163 7.07046,6.0426 7.0615,6.04364 7.05258,6.04476 7.04369,6.04594 7.03485,6.04719 7.02605,6.0485 7.01728,6.04988 7.00857,6.05133 6.99989,6.05284 6.99126,6.05443 6.98267,6.05607 6.97413,6.05778 6.96563,6.05955 6.95718,6.06139 6.94878,6.06328 6.94042,6.06525 6.93211,6.06727 6.92386,6.06936 6.91565,6.0715 3.12938,2.28523 3.13759,2.28309 3.14585,2.281 3.15415,2.27898 3.16251,2.27701 3.17091,2.27511 3.17936,2.27328 3.18786,2.2715 3.1964,2.2698 3.20499,2.26815 3.21362,2.26657 3.2223,2.26506 3.23102,2.26361 3.23978,2.26223 3.24858,2.26091 3.25743,2.25967 3.26631,2.25848 3.27523,2.25737 3.2842,2.25633 3.2932,2.25535 3.30223,2.25445 3.31131,2.25361 3.32042,2.25285 3.32956,2.25215 3.33874,2.25153 3.34795,2.25098 3.3572,2.2505 3.36648,2.25009 3.37579,2.24976 3.38513,2.2495 3.3945,2.24931 3.4039,2.2492 "/>
     <polygon id="_216936504" class="fil1" points="3.12938,2.28523 6.91565,6.0715 6.91557,6.07144 6.91549,6.07139 6.91541,6.07133 6.91533,6.07127 6.91525,6.07121 6.91517,6.07115 6.91509,6.07109 6.91502,6.07103 3.12875,2.28476 3.12883,2.28482 3.12891,2.28488 3.12898,2.28494 3.12906,2.285 3.12915,2.28506 3.12922,2.28511 3.1293,2.28517 "/>
     <polygon id="_216936672" class="fil1" points="3.12875,2.28476 6.91502,6.07103 6.90245,6.06115 6.8917,6.05165 6.88268,6.04252 3.09641,2.25625 3.10543,2.26538 3.11618,2.27488 "/>
     <polygon id="_655946712" class="fil1" points="3.29432,1.79363 7.08059,5.5799 7.08025,5.57961 7.07992,5.5793 7.07959,5.57899 7.07927,5.57867 7.07895,5.57833 3.29268,1.79206 3.293,1.79239 3.29332,1.79272 3.29365,1.79303 3.29398,1.79333 "/>
     <polygon id="_655946400" class="fil1" points="3.3096,1.54852 7.09587,5.33479 7.09643,5.33563 7.09682,5.33655 7.09702,5.33751 7.09704,5.3385 7.09686,5.33948 7.0965,5.34042 7.09593,5.3413 3.30966,1.55503 3.31023,1.55415 3.31059,1.55321 3.31077,1.55223 3.31076,1.55124 3.31055,1.55028 3.31017,1.54936 "/>
     <polygon id="_655946424" class="fil1" points="3.30966,1.55503 7.09593,5.3413 7.08919,5.3497 3.30292,1.56343 "/>
     <polygon id="_655946232" class="fil1" points="3.30292,1.56343 7.08919,5.3497 7.08832,5.35073 7.08745,5.35181 7.08658,5.35295 7.0857,5.35414 7.08483,5.35539 7.08396,5.3567 7.08309,5.35805 7.08223,5.35946 3.29596,1.57319 3.29682,1.57178 3.29769,1.57043 3.29856,1.56912 3.29943,1.56787 3.30031,1.56668 3.30119,1.56554 3.30205,1.56446 "/>
     <polygon id="_655946376" class="fil1" points="3.29596,1.57319 7.08223,5.35946 7.08131,5.36089 7.08035,5.36235 7.07939,5.36388 7.07841,5.36546 7.07743,5.36711 7.07647,5.36883 7.07552,5.37063 7.07461,5.37252 3.28834,1.58624 3.28926,1.58435 3.2902,1.58256 3.29117,1.58083 3.29214,1.57919 3.29312,1.57761 3.29409,1.57608 3.29504,1.57461 "/>
     <polygon id="_655946976" class="fil1" points="3.28834,1.58624 7.07461,5.37252 7.0736,5.37438 7.07261,5.3763 7.07165,5.37828 7.07072,5.38031 7.06982,5.3824 7.06894,5.38454 7.06809,5.38672 7.06727,5.38896 3.281,1.60269 3.28182,1.60045 3.28267,1.59826 3.28355,1.59613 3.28445,1.59404 3.28539,1.59201 3.28635,1.59003 3.28733,1.58811 "/>
     <polygon id="_655946688" class="fil1" points="3.281,1.60269 7.06727,5.38896 7.06635,5.39117 7.06553,5.39345 7.06478,5.3958 7.06409,5.39819 7.06343,5.40061 7.06278,5.40306 7.06209,5.40552 7.06137,5.40798 3.2751,1.6217 3.27583,1.61925 3.27651,1.61679 3.27717,1.61434 3.27783,1.61191 3.27852,1.60952 3.27926,1.60718 3.28008,1.6049 "/>
     <polygon id="_655946448" class="fil1" points="3.2751,1.6217 7.06137,5.40798 7.06094,5.41054 7.06048,5.41311 7.06,5.4157 7.05954,5.4183 7.05911,5.42092 7.05874,5.42356 7.05847,5.42622 7.0583,5.42892 3.27204,1.64265 3.2722,1.63995 3.27248,1.63728 3.27284,1.63465 3.27327,1.63203 3.27373,1.62943 3.27421,1.62684 3.27467,1.62427 "/>
     <polygon id="_655946496" class="fil1" points="3.27204,1.64265 7.0583,5.42892 7.05803,5.4316 7.05786,5.43429 7.05778,5.43699 7.05777,5.4397 7.0578,5.44241 7.05785,5.44512 7.05789,5.44783 7.05792,5.45054 3.27165,1.66426 3.27163,1.66156 3.27158,1.65885 3.27153,1.65613 3.2715,1.65343 3.27152,1.65072 3.27159,1.64802 3.27176,1.64533 "/>
     <polygon id="_655946760" class="fil1" points="3.27165,1.66426 7.05792,5.45054 7.05824,5.45323 7.05853,5.45592 7.05883,5.45859 7.05915,5.46126 7.05951,5.46391 7.05993,5.46655 7.06043,5.46916 7.06103,5.47175 3.27476,1.68548 3.27416,1.68289 3.27366,1.68028 3.27324,1.67764 3.27288,1.67499 3.27256,1.67232 3.27226,1.66965 3.27197,1.66696 "/>
     <polygon id="_655946256" class="fil1" points="3.27476,1.68548 7.06103,5.47175 7.06152,5.47433 7.06212,5.47688 7.0628,5.47939 7.06354,5.48187 7.06431,5.48432 7.06509,5.48674 7.06585,5.48915 7.06657,5.49154 3.2803,1.70526 3.27959,1.70288 3.27882,1.70047 3.27804,1.69805 3.27727,1.69559 3.27653,1.69311 3.27585,1.69061 3.27525,1.68806 "/>
     <polygon id="_655947696" class="fil1" points="3.2803,1.70526 7.06657,5.49154 7.06759,5.49381 7.06855,5.49607 7.06948,5.49831 7.07039,5.50052 7.07133,5.5027 7.07231,5.50482 7.07336,5.50687 7.07451,5.50885 3.28824,1.72258 3.28709,1.7206 3.28604,1.71855 3.28506,1.71643 3.28413,1.71425 3.28321,1.71204 3.28228,1.7098 3.28132,1.70754 "/>
     <polygon id="_655947240" class="fil1" points="3.28824,1.72258 7.07451,5.50885 7.07554,5.51085 7.07659,5.51279 7.07767,5.51468 7.07876,5.51652 7.07987,5.5183 7.08101,5.52002 7.08216,5.52169 7.08333,5.5233 3.29706,1.73703 3.29589,1.73542 3.29474,1.73375 3.29361,1.73203 3.2925,1.73025 3.2914,1.72841 3.29033,1.72652 3.28928,1.72458 "/>
     <polygon id="_655947456" class="fil1" points="3.29706,1.73703 7.08333,5.5233 7.08438,5.52492 7.08546,5.52647 7.08657,5.52795 7.08768,5.52937 7.08879,5.53074 7.08989,5.53205 7.09097,5.53331 7.09202,5.53453 3.30575,1.74826 3.3047,1.74704 3.30362,1.74578 3.30252,1.74447 3.30141,1.7431 3.3003,1.74168 3.2992,1.7402 3.29811,1.73865 "/>
     <polygon id="_655947312" class="fil1" points="3.30575,1.74826 7.09202,5.53453 7.09298,5.53574 7.09394,5.53689 7.0949,5.53798 7.09583,5.53902 3.30957,1.75274 3.30863,1.75171 3.30768,1.75062 3.30672,1.74947 "/>
     <polygon id="_655947000" class="fil1" points="3.32172,1.76461 7.10799,5.55088 7.10817,5.55107 7.10834,5.55126 7.10851,5.55145 7.10868,5.55165 7.10885,5.55185 3.32258,1.76558 3.32241,1.76538 3.32224,1.76518 3.32207,1.76499 3.3219,1.7648 "/>
     <polygon id="_655947336" class="fil1" points="3.5363,1.55972 7.32257,5.346 7.32483,5.34851 7.32721,5.35131 7.32969,5.35437 7.33222,5.35767 7.33479,5.36117 7.33735,5.36485 3.55108,1.57857 3.54852,1.57489 3.54596,1.57139 3.54342,1.5681 3.54094,1.56504 3.53856,1.56224 "/>
     <polygon id="_655947504" class="fil1" points="3.55108,1.57857 7.33735,5.36485 7.33869,5.36676 7.34002,5.36874 7.34132,5.37079 7.34261,5.3729 7.34388,5.37507 7.34512,5.3773 7.34635,5.3796 7.34755,5.38195 3.56128,1.59568 3.56008,1.59333 3.55885,1.59103 3.55761,1.5888 3.55634,1.58663 3.55506,1.58452 3.55375,1.58247 3.55243,1.58049 "/>
     <polygon id="_655947192" class="fil1" points="3.56128,1.59568 7.34755,5.38195 7.34886,5.3843 7.35007,5.38673 7.35121,5.38923 7.35229,5.3918 7.35335,5.39441 7.35441,5.39706 7.3555,5.39973 7.35665,5.40242 3.57038,1.61615 3.56924,1.61346 3.56815,1.61078 3.56709,1.60814 3.56602,1.60552 3.56494,1.60296 3.5638,1.60046 3.56259,1.59803 "/>
     <polygon id="_655947048" class="fil1" points="3.57038,1.61615 7.35665,5.40242 7.35748,5.40522 7.35835,5.40804 7.35924,5.41089 7.36011,5.41378 7.36095,5.4167 7.36172,5.41965 7.3624,5.42264 7.36296,5.42568 3.57669,1.63941 3.57613,1.63637 3.57545,1.63338 3.57468,1.63043 3.57385,1.62751 3.57297,1.62462 3.57209,1.62177 3.57122,1.61894 "/>
     <polygon id="_655947528" class="fil1" points="3.57669,1.63941 7.36296,5.42568 7.36362,5.42871 7.36417,5.43177 7.36463,5.43486 7.36503,5.43796 7.36537,5.44109 7.36569,5.44422 7.366,5.44738 7.36631,5.45054 3.58005,1.66426 3.57973,1.66111 3.57943,1.65795 3.57911,1.65481 3.57876,1.65169 3.57837,1.64859 3.57791,1.6455 3.57735,1.64244 "/>
     <polygon id="_655948440" class="fil1" points="3.58005,1.66426 7.36631,5.45054 7.36634,5.4537 7.36638,5.45686 7.36641,5.46003 7.36641,5.4632 7.36636,5.46637 7.36623,5.46952 7.36601,5.47267 7.36567,5.4758 3.5794,1.68952 3.57974,1.68639 3.57996,1.68325 3.58009,1.68009 3.58015,1.67693 3.58015,1.67376 3.58011,1.67059 3.58007,1.66743 "/>
     <polygon id="_655948176" class="fil1" points="3.5794,1.68952 7.36567,5.4758 7.36544,5.47893 7.36509,5.48204 7.36465,5.48511 7.36413,5.48817 7.36356,5.4912 7.36298,5.49421 7.36239,5.4972 7.36184,5.50019 3.57557,1.71391 3.57613,1.71093 3.57671,1.70794 3.5773,1.70493 3.57786,1.70189 3.57838,1.69884 3.57882,1.69576 3.57917,1.69266 "/>
     <polygon id="_655948272" class="fil1" points="3.57557,1.71391 7.36184,5.50019 7.36099,5.50306 7.36017,5.50593 7.35938,5.50878 7.35857,5.51161 7.35773,5.51439 7.35683,5.51711 7.35585,5.51978 7.35477,5.52237 3.5685,1.73609 3.56959,1.73351 3.57057,1.73084 3.57146,1.72811 3.5723,1.72533 3.57311,1.72251 3.57391,1.71966 3.57472,1.71679 "/>
     <polygon id="_655948416" class="fil1" points="3.5685,1.73609 7.35477,5.52237 7.35379,5.52495 7.35278,5.52749 7.35174,5.52996 7.35066,5.53238 7.34956,5.53474 7.34842,5.53704 7.34726,5.53927 7.34607,5.54144 3.5598,1.75517 3.56099,1.753 3.56215,1.75076 3.56329,1.74847 3.56439,1.74611 3.56547,1.74369 3.56651,1.74122 3.56752,1.73868 "/>
     <polygon id="_655947840" class="fil1" points="3.5598,1.75517 7.34607,5.54144 7.34497,5.54361 7.34384,5.5457 7.34269,5.54771 7.34152,5.54965 7.34035,5.55152 7.33918,5.55331 7.33802,5.55506 7.3369,5.55674 3.55063,1.77047 3.55176,1.76878 3.55291,1.76704 3.55408,1.76524 3.55525,1.76338 3.55642,1.76144 3.55757,1.75943 3.5587,1.75734 "/>
     <polygon id="_655948080" class="fil1" points="3.55063,1.77047 7.3369,5.55674 7.33584,5.55841 7.3348,5.56 7.33376,5.56152 7.33274,5.56296 7.33173,5.56432 7.33074,5.5656 7.32977,5.56681 7.32881,5.56794 3.54255,1.78167 3.5435,1.78054 3.54447,1.77933 3.54546,1.77805 3.54647,1.77669 3.54749,1.77525 3.54853,1.77373 3.54957,1.77214 "/>
     <polygon id="_655948464" class="fil1" points="3.54255,1.78167 7.32881,5.56794 7.32116,5.57729 3.53489,1.79102 "/>
     <polygon id="_655948344" class="fil1" points="3.53489,1.79102 7.32116,5.57729 7.321,5.57748 7.32085,5.57766 7.32069,5.57784 7.32053,5.57802 7.32037,5.5782 7.32021,5.57837 7.32005,5.57855 7.31988,5.57872 3.53361,1.79244 3.53378,1.79228 3.53394,1.7921 3.53411,1.79193 3.53426,1.79175 3.53443,1.79157 3.53458,1.79139 3.53474,1.7912 "/>
     <polygon id="_655947984" class="fil1" points="3.53361,1.79244 7.31988,5.57872 7.32433,5.58446 7.32855,5.59042 7.33254,5.59658 7.3363,5.60294 7.33981,5.6095 7.34307,5.61624 7.34607,5.62315 7.3488,5.63024 7.35124,5.63748 7.35341,5.64487 7.35528,5.65242 7.35685,5.6601 7.35811,5.66791 7.35905,5.67585 7.35966,5.6839 7.35994,5.69206 3.57367,1.90578 3.57339,1.89763 3.57278,1.88957 3.57184,1.88164 3.57058,1.87383 3.56901,1.86615 3.56714,1.8586 3.56498,1.8512 3.56253,1.84396 3.5598,1.83688 3.5568,1.82996 3.55354,1.82323 3.55003,1.81667 3.54628,1.81031 3.54228,1.80415 3.53806,1.79819 "/>
     <polygon id="_655948392" class="fil1" points="3.64347,1.95726 7.42974,5.74353 7.4353,5.74986 7.44062,5.7564 7.4457,5.76314 7.45054,5.77008 7.45514,5.77722 7.45951,5.78455 3.67324,1.99828 3.66887,1.99094 3.66427,1.98381 3.65943,1.97687 3.65435,1.97013 3.64904,1.96359 "/>
     <polygon id="_655948128" class="fil1" points="3.67324,1.99828 7.45951,5.78455 7.46182,5.78866 7.46405,5.79283 7.46622,5.79706 7.46831,5.80133 7.47033,5.80567 7.47228,5.81006 7.47417,5.81449 7.47598,5.81898 7.47773,5.82352 7.47941,5.82811 7.48102,5.83276 7.48257,5.83745 7.48405,5.8422 7.48547,5.84699 7.48682,5.85183 7.48811,5.85672 7.48933,5.86166 7.4905,5.86665 7.4916,5.87168 7.49264,5.87676 7.49362,5.88189 7.49454,5.88706 7.4954,5.89228 7.4962,5.89754 7.49694,5.90285 7.49762,5.9082 7.49824,5.91359 7.49881,5.91903 7.49933,5.92451 7.49978,5.93004 7.50019,5.9356 7.50053,5.9412 3.71426,2.15493 3.71392,2.14933 3.71352,2.14376 3.71306,2.13824 3.71255,2.13276 3.71198,2.12732 3.71135,2.12193 3.71067,2.11658 3.70993,2.11127 3.70913,2.10601 3.70827,2.10079 3.70735,2.09562 3.70637,2.09049 3.70533,2.08541 3.70423,2.08038 3.70307,2.07539 3.70184,2.07045 3.70056,2.06556 3.6992,2.06072 3.69778,2.05593 3.6963,2.05118 3.69476,2.04649 3.69314,2.04184 3.69146,2.03725 3.68971,2.03271 3.6879,2.02822 3.68602,2.02378 3.68406,2.0194 3.68204,2.01506 3.67995,2.01079 3.67778,2.00656 3.67555,2.00239 "/>
     <polygon id="_655949184" class="fil1" points="3.71426,2.15493 7.50053,5.9412 7.50075,5.94187 3.71448,2.1556 "/>
     <polygon id="_655949040" class="fil1" points="3.73669,2.17331 7.52296,5.95958 7.52519,5.96217 7.52737,5.96494 3.7411,2.17867 3.73892,2.1759 "/>
     <polygon id="_655949112" class="fil1" points="3.7411,2.17867 7.52737,5.96494 7.53091,5.97002 7.53398,5.97522 7.5365,5.98057 7.53839,5.98608 7.5396,5.99176 7.54004,5.99765 7.53964,6.00374 7.53833,6.01006 7.53604,6.01663 7.53269,6.02346 7.52822,6.03057 7.52254,6.03797 7.51559,6.0457 7.50731,6.05375 7.4976,6.06215 7.4864,6.07092 3.70013,2.28465 3.71133,2.27588 3.72104,2.26748 3.72933,2.25943 3.73628,2.2517 3.74195,2.2443 3.74642,2.23719 3.74977,2.23035 3.75206,2.22379 3.75337,2.21746 3.75377,2.21137 3.75333,2.20549 3.75213,2.19981 3.75023,2.1943 3.74771,2.18895 3.74464,2.18375 "/>
     <polygon id="_655948632" class="fil1" points="3.70013,2.28465 7.4864,6.07092 7.48624,6.07104 7.48607,6.07117 7.4859,6.07129 7.48573,6.07142 7.48557,6.07154 7.4854,6.07167 7.48523,6.07179 7.48506,6.07191 3.6988,2.28564 3.69896,2.28552 3.69913,2.28539 3.6993,2.28527 3.69946,2.28515 3.69963,2.28502 3.6998,2.2849 3.69997,2.28477 "/>
     <polygon id="_655948656" class="fil1" points="4.09934,2.55172 7.88561,6.33799 7.86281,6.35911 4.07655,2.57284 "/>
     <polygon id="_655948776" class="fil1" points="4.07655,2.57284 7.86281,6.35911 7.85694,6.36402 7.85073,6.36823 7.84423,6.37175 7.83748,6.37457 7.83055,6.3767 7.82348,6.37815 7.81634,6.3789 7.80917,6.37897 7.80202,6.37836 7.79495,6.37706 7.78801,6.37509 7.78126,6.37243 7.77474,6.36911 7.76852,6.3651 7.76264,6.36043 7.75715,6.35509 3.97089,2.56881 3.97637,2.57416 3.98225,2.57883 3.98848,2.58283 3.99499,2.58616 4.00174,2.58881 4.00868,2.59079 4.01575,2.59209 4.0229,2.5927 4.03007,2.59263 4.03722,2.59187 4.04428,2.59043 4.05121,2.5883 4.05796,2.58548 4.06446,2.58196 4.07068,2.57775 "/>
     <polygon id="_655948560" class="fil1" points="4.49166,1.92854 8.27793,5.71481 8.2801,5.71775 8.28167,5.72106 8.28259,5.72462 8.2828,5.72835 8.28225,5.73217 4.49598,1.94589 4.49654,1.94208 4.49632,1.93835 4.49541,1.93478 4.49383,1.93148 "/>
     <polygon id="_655948584" class="fil1" points="4.49598,1.94589 8.28225,5.73217 8.20606,6.03692 4.41979,2.25065 "/>
     <polygon id="_655948824" class="fil1" points="4.41979,2.25065 8.20606,6.03692 8.20472,6.04217 4.41845,2.25589 "/>
     <polygon id="_655948944" class="fil1" points="4.41845,2.25589 8.20472,6.04217 8.19873,6.04775 4.41246,2.26148 "/>
     <polygon id="_655948992" class="fil1" points="4.41246,2.26148 8.19873,6.04775 7.88561,6.33799 4.09934,2.55172 "/>
     <polygon id="_655949520" class="fil1" points="5.13223,3.48976 8.9185,7.27603 8.92081,7.27885 8.92257,7.28208 8.92368,7.28566 8.92406,7.28949 5.1378,3.50322 5.13741,3.49939 5.1363,3.49581 5.13455,3.49257 "/>
     <polygon id="_655949424" class="fil1" points="5.1378,3.50322 8.92406,7.28949 8.92368,7.29333 8.92256,7.2969 8.92081,7.30013 8.91848,7.30296 8.91567,7.30528 8.91243,7.30704 8.90887,7.30815 8.90504,7.30854 5.11877,3.52227 5.1226,3.52188 5.12617,3.52077 5.1294,3.51901 5.13221,3.51669 5.13454,3.51386 5.1363,3.51063 5.13741,3.50706 "/>
     <polygon id="_655949976" class="fil1" points="4.46839,3.13475 8.25465,6.92102 7.9008,7.16135 4.11453,3.37508 "/>
     <polygon id="_655950024" class="fil1" points="4.80208,3.52208 8.58835,7.30835 8.57946,7.30835 4.79319,3.52208 "/>
     <polygon id="_655949472" class="fil1" points="4.47671,3.08537 8.26298,6.87164 8.2728,6.88342 4.48653,3.09715 "/>
     <polygon id="_655949832" class="fil1" points="4.11447,3.37513 7.90074,7.1614 7.83853,7.20365 4.05226,3.41737 "/>
     <polygon id="_655949640" class="fil1" points="4.52634,3.70664 8.31261,7.49291 8.31524,7.5158 4.52897,3.72953 "/>
     <polygon id="_655949568" class="fil1" points="4.05226,3.41737 7.83853,7.20365 7.83431,7.20621 7.82994,7.20829 7.82544,7.20991 7.82087,7.21105 7.81624,7.21174 7.81159,7.21197 7.80696,7.21176 7.80237,7.21111 7.79787,7.21003 7.79348,7.20852 7.78924,7.20658 7.78519,7.20423 7.78135,7.20148 7.77776,7.19832 3.9915,3.41205 3.99508,3.4152 3.99892,3.41796 4.00298,3.42031 4.00721,3.42224 4.0116,3.42376 4.0161,3.42484 4.02069,3.42549 4.02532,3.4257 4.02997,3.42547 4.0346,3.42478 4.03918,3.42363 4.04367,3.42202 4.04804,3.41994 "/>
     <polygon id="_655949736" class="fil1" points="4.03869,3.97706 7.82496,7.76333 7.82478,7.76341 4.03852,3.97714 "/>
     <polygon id="_655949808" class="fil1" points="4.03852,3.97714 7.82478,7.76341 7.78462,7.78252 3.99835,3.99625 "/>
     <polygon id="_655950192" class="fil1" points="3.99835,3.99625 7.78462,7.78252 7.78053,7.78494 7.77393,7.78946 7.765,7.79592 7.7539,7.80418 7.7408,7.81409 7.72587,7.82551 7.70929,7.83828 7.69122,7.85226 7.67183,7.8673 7.6513,7.88324 7.62979,7.89995 7.60747,7.91728 7.58452,7.93506 7.56111,7.95317 7.5374,7.97144 7.51356,7.98973 7.48977,8.0079 7.4662,8.02579 7.44301,8.04325 7.42038,8.06015 7.39848,8.07631 7.37747,8.09162 7.35753,8.1059 7.33883,8.11902 7.32153,8.13083 7.30581,8.14117 7.29184,8.1499 7.27979,8.15687 7.26983,8.16194 7.26213,8.16495 7.25685,8.16576 7.25418,8.16421 3.46791,4.37794 3.47058,4.37948 3.47586,4.37868 3.48356,4.37567 3.49352,4.3706 3.50557,4.36363 3.51954,4.35489 3.53526,4.34456 3.55256,4.33275 3.57126,4.31963 3.5912,4.30535 3.61221,4.29004 3.63411,4.27387 3.65674,4.25698 3.67993,4.23952 3.7035,4.22163 3.7273,4.20346 3.75113,4.18517 3.77484,4.1669 3.79826,4.14879 3.8212,4.131 3.84352,4.11368 3.86503,4.09697 3.88556,4.08103 3.90495,4.06599 3.92302,4.05201 3.9396,4.03924 3.95453,4.02782 3.96763,4.01791 3.97873,4.00965 3.98767,4.00319 3.99426,3.99867 "/>
     <polygon id="_655950312" class="fil1" points="4.6313,4.90835 8.41756,8.69462 8.4116,8.6897 4.62533,4.90343 "/>
     <polygon id="_655950144" class="fil1" points="4.11453,3.37508 7.9008,7.16135 7.89947,7.17677 7.89812,7.19216 7.89674,7.20752 7.89533,7.22286 7.8939,7.23818 7.89243,7.25346 7.89094,7.26872 7.88942,7.28396 7.88787,7.29916 7.8863,7.31434 7.88469,7.32948 7.88306,7.3446 7.8814,7.35969 7.87971,7.37474 7.878,7.38977 7.87626,7.40476 7.87449,7.41972 7.8727,7.43465 7.87087,7.44954 7.86902,7.46441 7.86715,7.47923 7.86525,7.49402 7.86332,7.50878 7.86137,7.5235 7.85938,7.53818 7.85738,7.55283 7.85534,7.56744 7.85328,7.58201 7.8512,7.59654 7.84909,7.61103 7.84695,7.62548 7.84479,7.6399 4.05852,3.85363 4.06069,3.83921 4.06282,3.82476 4.06493,3.81027 4.06702,3.79574 4.06907,3.78117 4.07111,3.76656 4.07311,3.75191 4.0751,3.73723 4.07705,3.72251 4.07898,3.70775 4.08088,3.69296 4.08276,3.67813 4.08461,3.66327 4.08643,3.64838 4.08822,3.63345 4.08999,3.61849 4.09173,3.6035 4.09344,3.58847 4.09513,3.57342 4.09679,3.55833 4.09842,3.54321 4.10003,3.52807 4.1016,3.51289 4.10315,3.49769 4.10467,3.48245 4.10617,3.46719 4.10763,3.45191 4.10907,3.43659 4.11048,3.42125 4.11185,3.40589 4.1132,3.3905 "/>
     <polygon id="_655950552" class="fil1" points="4.49413,3.76032 8.2804,7.54659 7.82496,7.76333 4.03869,3.97706 "/>
     <polygon id="_655950168" class="fil1" points="4.52897,3.72953 8.31524,7.5158 8.44772,8.6701 4.66145,4.88383 "/>
     <polygon id="_655950744" class="fil1" points="4.83999,5.07989 8.62626,8.86616 8.41756,8.69462 4.6313,4.90835 "/>
     <polygon id="_655950576" class="fil1" points="4.86681,5.07724 8.65308,8.86351 8.65034,8.86623 8.64721,8.86829 8.64379,8.86967 8.6402,8.87037 8.63655,8.87038 8.63293,8.86969 8.62947,8.86828 8.62626,8.86616 4.83999,5.07989 4.8432,5.08201 4.84667,5.08342 4.85028,5.08411 4.85394,5.0841 4.85752,5.0834 4.86094,5.08202 4.86407,5.07996 "/>
     <polygon id="_655950408" class="fil1" points="4.86418,5.05041 8.65044,8.83669 8.65318,8.83943 8.65524,8.84256 8.65663,8.84598 8.65733,8.84957 8.65733,8.85322 8.65663,8.85684 8.65522,8.8603 8.65308,8.86351 4.86681,5.07724 4.86895,5.07403 4.87037,5.07057 4.87107,5.06695 4.87106,5.0633 4.87036,5.0597 4.86897,5.05629 4.86691,5.05316 "/>
     <polygon id="_655950768" class="fil1" points="4.48653,3.09715 8.2728,6.88342 8.59725,7.27025 4.81098,3.48398 "/>
     <polygon id="_655950672" class="fil1" points="5.11877,3.52227 8.90504,7.30854 8.58835,7.30835 4.80208,3.52208 "/>
    </g>
    <path id="_637653112" class="fil1" d="M2.68383 2.70838c0,-0.000137795 0,-0.000275591 0,-0.000413386 0,0.000137795 0,0.000275591 0,0.000413386zm0.112736 1.27275l-0.464031 -0.220819 -0.130283 1.13546 -0.000885827 0.00766142 -0.00597244 0.00492126 -0.208717 0.171539c-0.00809055,0.0066378 -0.020126,0.00548425 -0.0267992,-0.00264567 -0.00666535,-0.00811811 -0.00551969,-0.020126 0.00263386,-0.0268268l0.202732 -0.166606 0.132445 -1.15428 0.00267323 -0.0228937 0.0232323 0.00729921 0.451898 0.141988c-0.0246339,-0.155118 -0.0447953,-0.315898 -0.059874,-0.478504l-0.357307 -0.242673 -0.319122 0.380508 -0.00571654 0.00682677 -0.00888189 0 -0.316673 0.000185039c-0.0104764,0 -0.0190472,-0.00854331 -0.0190472,-0.0190472 0,-0.0105079 0.00854331,-0.0190512 0.0190472,-0.0190512l0.307795 -0.000188976 0.324461 -0.386835 0.00981496 -0.0117795 0.0145709 0.00768898 0.342094 0.179949 0.117346 0.0617244c0.023622,0.0124134 0.0326339,0.0415906 0.0202559,0.0651811 -0.0124134,0.023622 -0.0415906,0.0326339 -0.0651811,0.0202559 -0.00162205,-0.000854331 -0.00320866,-0.00181496 -0.00463386,-0.00279134l-0.0587795 -0.0399213c0.0150906,0.16261 0.0352638,0.323386 0.0599134,0.4785l0.0960827 0.030189c0.0312402,0.00981496 0.0485748,0.043122 0.0387953,0.0743622 -0.00984252,0.0312402 -0.0431181,0.0486417 -0.0743858,0.0387992 -0.0025748,-0.000791339 -0.00533858,-0.00194488 -0.00771654,-0.00305118l-0.031685 -0.0150787 -9.84252e-005 -4.72441e-005zm0.0220512 -1.53879l0.000106299 5.90551e-005 0.0184449 0.0102205c0.0361378,0.02 0.0492126,0.0654961 0.029189,0.101622 -0.0200079,0.0361339 -0.0655079,0.0491496 -0.101634,0.0291772 -0.00527165,-0.00294882 -0.0103583,-0.00672835 -0.0145669,-0.0105709l-0.0227913 -0.021122 -0.313154 -0.29024 -0.0059685 -0.00558661 -0.00133858 -0.00524409 -0.0761969 -0.304756c-0.0025315,-0.010189 0.00364961,-0.0205394 0.0138819,-0.0231102 0.0101929,-0.00254331 0.0205394,0.00367717 0.0231102,0.0138701l0.0742126 0.296929 0.376705 0.208752zm0.880177 -0.156693c-0.0876772,-0.0234882 -0.184157,-0.0364843 -0.285465,-0.0364843 -0.100728,0 -0.196677,0.0128465 -0.283949,0.0360748 -0.000212598,-0.00015748 -0.00042126,-0.000314961 -0.000633858,-0.000472441 -0.0720669,-0.0537323 -0.0621772,-0.0904291 -0.0378189,-0.123106 0.0035315,-0.00473622 0.0082874,-0.0100591 0.013,-0.0153307 0.00627559,-0.00701969 0.0124409,-0.0139213 0.0127362,-0.0167323 0.00569685,-0.0539252 0.0198268,-0.101583 0.0449252,-0.140988 0.0223661,-0.0351063 0.0530157,-0.0631929 0.093622,-0.082811 0.000570866,-0.0432205 0.0153858,-0.0822559 0.0391102,-0.112161 -0.000913386,-0.000775591 -0.00176772,-0.00164961 -0.00255118,-0.00261024l-0.00765748 -0.00935039c-0.00251181,-0.00291339 -0.00525197,-0.00664173 -0.00808268,-0.0112008 -0.00296063,-0.0044252 -0.00630709,-0.00938189 -0.00916929,-0.0153031 -0.00320866,-0.00569291 -0.00614173,-0.0120984 -0.00870079,-0.0190709 -0.00306299,-0.00679134 -0.00472441,-0.0145118 -0.00707087,-0.0221811 -0.00141732,-0.00793701 -0.00340945,-0.0159882 -0.00383071,-0.0243898 -0.00108268,-0.00832283 -0.000681102,-0.0168425 -0.000645669,-0.0252598 0.000877953,-0.00843307 0.00142913,-0.0168031 0.00335827,-0.0248583 0.00131496,-0.00815354 0.00416142,-0.0158228 0.00631102,-0.0232598 0.00314173,-0.00717323 0.00543701,-0.0143268 0.00909843,-0.0204646 0.00317717,-0.0063622 0.00658661,-0.0120866 0.0102008,-0.0171063 0.00678346,-0.0100315 0.0139921,-0.018437 0.0187677,-0.0228976l0.00766929 -0.00753543c0.0018622,-0.00181496 0.00477559,-0.00198031 0.00683858,-0.000354331 0.0022126,0.00178346 0.00257874,0.00501575 0.00080315,0.00724016l-0.00674409 0.00840551c-0.00229528,0.00264567 -0.00467323,0.00594094 -0.00695276,0.00975197 -0.00242913,0.00375591 -0.00522835,0.00789764 -0.00762205,0.0130591 -0.00272835,0.00488976 -0.00519291,0.0104173 -0.00733858,0.0164409 -0.00262598,0.0057874 -0.00387795,0.0124803 -0.00590551,0.0190197 -0.00106693,0.00683858 -0.00279528,0.0137047 -0.00306299,0.0209449 -0.000897638,0.00712205 -0.000401575,0.0144055 -0.00038189,0.0216142 0.000885827,0.00718898 0.00135039,0.0143425 0.00311024,0.0212165 0.00112992,0.00693701 0.00370866,0.0134409 0.00553937,0.0197835 0.0028189,0.00605512 0.00472835,0.0121457 0.00793701,0.0173189 0.00273228,0.00538976 0.00567323,0.0102323 0.0088189,0.0144449 0.00276378,0.0044252 0.00594094,0.00803543 0.00868898,0.0112283 0.00259449,0.00331496 0.00512598,0.00598819 0.00738976,0.00800394l0.0067874 0.00658661 0.00126378 0.00121654c0.000480315,0.000472441 0.000948819,0.000976378 0.0013937,0.00151575 0.0226063,-0.0175787 0.0494606,-0.0288031 0.0782402,-0.0315354 0.00518898,-0.000492126 0.00974016,-0.000744094 0.0136181,-0.000744094 0.00387795,0 0.00842913,0.000251969 0.0136181,0.000744094 0.0282205,0.00267717 0.0545906,0.0135236 0.0769213,0.0305197 0.000161417,-0.000169291 0.000326772,-0.000338583 0.000492126,-0.0005l0.00126772 -0.00121654 0.00678346 -0.00658661c0.00226378,-0.00201575 0.00479528,-0.00468898 0.00738976,-0.00800394 0.00274803,-0.00319291 0.0059252,-0.00680315 0.00868898,-0.0112283 0.00314567,-0.0042126 0.00608661,-0.00905512 0.0088189,-0.0144449 0.00320866,-0.00517323 0.00511811,-0.0112638 0.00793701,-0.0173189 0.00183071,-0.00634252 0.00440945,-0.0128465 0.00553937,-0.0197835 0.00175984,-0.00687402 0.00222441,-0.0140276 0.00311024,-0.0212165 1.9685e-005,-0.00720866 0.000515748,-0.0144921 -0.00038189,-0.0216142 -0.000267717,-0.00724016 -0.00199606,-0.0141063 -0.00306299,-0.0209449 -0.00202756,-0.00653937 -0.00327953,-0.0132323 -0.00590551,-0.0190197 -0.00214567,-0.00602362 -0.00461024,-0.0115512 -0.00733858,-0.0164409 -0.0023937,-0.00516142 -0.00518898,-0.00930315 -0.00762205,-0.0130591 -0.00227953,-0.00381102 -0.00465748,-0.0071063 -0.00695276,-0.00975197l-0.00674409 -0.00840551c-0.00177559,-0.00222441 -0.00140945,-0.00545669 0.00080315,-0.00724016 0.00206299,-0.00162598 0.00497638,-0.00146063 0.00683858,0.000354331l0.00766929 0.00753543c0.00477559,0.00446063 0.0119843,0.0128661 0.0187677,0.0228976 0.00361417,0.00501969 0.00702362,0.0107441 0.0102008,0.0171063 0.00366142,0.0061378 0.00595669,0.0132913 0.00910236,0.0204646 0.00214567,0.00743701 0.00499213,0.0151063 0.00630709,0.0232598 0.00192913,0.00805512 0.00248031,0.0164252 0.00335827,0.0248583 3.54331e-005,0.00841732 0.000437008,0.016937 -0.000645669,0.0252598 -0.00042126,0.00840157 -0.00241339,0.0164528 -0.00383071,0.0243898 -0.00234646,0.00766929 -0.00400787,0.0153898 -0.00707087,0.0221811 -0.00255906,0.00697244 -0.00549213,0.013378 -0.00870079,0.0190709 -0.0028622,0.00592126 -0.00620866,0.010878 -0.00916929,0.0153031 -0.00283071,0.00455906 -0.00557087,0.0082874 -0.00808268,0.0112008l-0.00765748 0.00935039c-0.000405512,0.0005 -0.000834646,0.000976378 -0.00127559,0.0014252 0.0242756,0.0300512 0.0394764,0.0695512 0.0400551,0.113339 0.0444094,0.0214291 0.076878,0.0528858 0.0995748,0.0924921 0.0249843,0.0436024 0.0376063,0.0966496 0.0410197,0.156657 0.00011811,0.00205906 0.00415748,0.00159449 0.00848031,0.00529134 0.00628346,0.00537402 0.0126142,0.0107795 0.0183543,0.0184449 0.0200394,0.0267756 0.0228504,0.0582126 -0.0409646,0.105976 -0.000444882,0.000334646 -0.000889764,0.000665354 -0.00133858,0.000996063zm0.400543 0.266075l-0.0227913 0.021126c-0.0302835,0.0280354 -0.077563,0.0262559 -0.105661,-0.00402756 -0.0280315,-0.0302913 -0.0262559,-0.0775669 0.00402756,-0.105665 0.00441339,-0.00409449 0.00956693,-0.00774409 0.0145787,-0.0105354l0.0184409 -0.0102205 0.000102362 -5.51181e-005 0.376724 -0.208744 0.0742402 -0.296941c0.00257087,-0.0101929 0.0129213,-0.0164134 0.0231102,-0.0138701 0.0102205,0.00257087 0.0164134,0.0129213 0.0138701,0.0231102l-0.0761929 0.304756 -0.00133858 0.00524409 -0.00598819 0.00558661 -0.313122 0.290236zm0.711642 0.932264l0.307791 0.000188976c0.0105157,0 0.0190236,0.00854331 0.0190236,0.0190512 0,0.0105039 -0.00854331,0.0190472 -0.0190236,0.0190472l-0.316689 -0.000185039 -0.0088937 0 -0.00568504 -0.00682677 -0.319118 -0.380504 -0.353858 0.240331c-0.0139528,0.164547 -0.032811,0.325024 -0.0560039,0.478543l0.444571 -0.139689 0.0232441 -0.00729921 0.00263386 0.0228937 0.13248 1.1543 0.202724 0.166583c0.00816535,0.00670079 0.00931102,0.0187087 0.0026378,0.0268268 -0.00670079,0.00812992 -0.0187008,0.00928346 -0.0268268,0.00264567l-0.208693 -0.171539 -0.00596063 -0.00492126 -0.000893701 -0.00766142 -0.130307 -1.13544 -0.455445 0.216732 -0.000173228 8.26772e-005 -0.0401654 0.0191142c-0.029622,0.0140906 -0.516378,0.41124 -0.530441,0.381685 -0.0140984,-0.0295906 0.449858,-0.474681 0.479449,-0.488772 0.00241339,-0.0011811 0.00524409,-0.00225591 0.00768504,-0.00302362l0.103339 -0.0324685c0.0232244,-0.153508 0.0421102,-0.313984 0.0560866,-0.478547l-0.0622087 0.042248c-0.0220315,0.0149488 -0.0520394,0.00923622 -0.0670512,-0.0128268 -0.0149567,-0.0220354 -0.00920866,-0.0520433 0.0128543,-0.0670276 0.00149213,-0.00101181 0.00305118,-0.00193701 0.0046378,-0.00279134l0.119862 -0.0630512 4.72441e-005 -2.3622e-005 0.339531 -0.178598 0.0145709 -0.00768898 0.00981496 0.0117795 0.324453 0.386835z"/>
   </g>
  </g>
  <path class="fil2" d="M3.41333 -3.93701e-006c1.88513,0 3.41333,1.5282 3.41333,3.41333 0,1.88513 -1.5282,3.41333 -3.41333,3.41333 -1.88513,0 -3.41333,-1.5282 -3.41333,-3.41333 0,-1.88513 1.5282,-3.41333 3.41333,-3.41333z"/>
  <path class="fil3" d="M2.75016 2.57284l-0.335945 -0.311362 -0.0059685 -0.00558661 -0.00133858 -0.00524409 -0.0761969 -0.304756c-0.0025315,-0.010189 0.00364961,-0.0205394 0.0138819,-0.0231102 0.0101929,-0.00254331 0.0205394,0.00367717 0.0231102,0.0138701l0.0761693 0.304764 -0.00730709 -0.0107992 0.400606 0.221996c0.0361378,0.02 0.0492126,0.0654961 0.029189,0.101622 -0.0200079,0.0361339 -0.0655079,0.0491496 -0.101634,0.0291772 -0.00527165,-0.00294882 -0.0103583,-0.00672835 -0.0145669,-0.0105709z"/>
  <path class="fil3" d="M2.77444 3.41737l-0.429472 -0.291689 0.0243465 -0.00405512 -0.330126 0.393626 -0.00571654 0.00682677 -0.00888189 0 -0.316673 0.000185039c-0.0104764,0 -0.0190472,-0.00854331 -0.0190472,-0.0190472 0,-0.0105079 0.00854331,-0.0190512 0.0190472,-0.0190512l0.316673 -0.000192913 -0.0145787 0.00680315 0.330161 -0.393634 0.00981496 -0.0117795 0.0145709 0.00768898 0.459441 0.241673c0.023622,0.0124134 0.0326339,0.0415906 0.0202559,0.0651811 -0.0124134,0.023622 -0.0415906,0.0326339 -0.0651811,0.0202559 -0.00162205,-0.000854331 -0.00320866,-0.00181496 -0.00463386,-0.00279134z"/>
  <path class="fil3" d="M2.82835 3.99625l-0.518654 -0.246815 0.0258701 -0.0155551 -0.133315 1.16188 -0.000885827 0.00766142 -0.00597244 0.00492126 -0.208717 0.171539c-0.00809055,0.0066378 -0.020126,0.00548425 -0.0267992,-0.00264567 -0.00666535,-0.00811811 -0.00551969,-0.020126 0.00263386,-0.0268268l0.208693 -0.171504 -0.00683071 0.0124764 0.133315 -1.16185 0.00267323 -0.0228937 0.0232323 0.00729921 0.548063 0.172205c0.0312402,0.00981496 0.0485748,0.043122 0.0387953,0.0743622 -0.00984252,0.0312402 -0.0431181,0.0486417 -0.0743858,0.0387992 -0.0025748,-0.000791339 -0.00533858,-0.00194488 -0.00771654,-0.00305118z"/>
  <path class="fil3" d="M4.0027 3.33473l0.459441 -0.241673 0.0145709 -0.00768898 0.00981496 0.0117795 0.330154 0.393634 -0.0145984 -0.00680315 0.316689 0.000192913c0.0105157,0 0.0190236,0.00854331 0.0190236,0.0190512 0,0.0105039 -0.00854331,0.0190472 -0.0190236,0.0190472l-0.316689 -0.000185039 -0.0088937 0 -0.00568504 -0.00682677 -0.330126 -0.393626 0.0243583 0.00405512 -0.429476 0.291689c-0.0220315,0.0149488 -0.0520394,0.00923622 -0.0670512,-0.0128268 -0.0149567,-0.0220354 -0.00920866,-0.0520433 0.0128543,-0.0670276 0.00149213,-0.00101181 0.00305118,-0.00193701 0.0046378,-0.00279134z"/>
  <path class="fil3" d="M3.95504 3.88614l0.548051 -0.172205 0.0232441 -0.00729921 0.00263386 0.0228937 0.133346 1.16185 -0.00685827 -0.0124764 0.208717 0.171504c0.00816535,0.00670079 0.00931102,0.0187087 0.0026378,0.0268268 -0.00670079,0.00812992 -0.0187008,0.00928346 -0.0268268,0.00264567l-0.208693 -0.171539 -0.00596063 -0.00492126 -0.000893701 -0.00766142 -0.133343 -1.16188 0.0259055 0.0155551 -0.518654 0.246815c-0.029622,0.0140906 -0.0649921,0.00151969 -0.0790551,-0.0280354 -0.0140984,-0.0295906 -0.00152756,-0.0649606 0.028063,-0.0790512 0.00241339,-0.0011811 0.00524409,-0.00225591 0.00768504,-0.00302362z"/>
  <path class="fil3" d="M3.98949 2.45261l0.400638 -0.221996 -0.00732677 0.0107992 0.0761969 -0.304764c0.00257087,-0.0101929 0.0129213,-0.0164134 0.0231102,-0.0138701 0.0102205,0.00257087 0.0164134,0.0129213 0.0138701,0.0231102l-0.0761929 0.304756 -0.00133858 0.00524409 -0.00598819 0.00558661 -0.335913 0.311362c-0.0302835,0.0280354 -0.077563,0.0262559 -0.105661,-0.00402756 -0.0280315,-0.0302913 -0.0262559,-0.0775669 0.00402756,-0.105665 0.00441339,-0.00409449 0.00956693,-0.00774409 0.0145787,-0.0105354z"/>
  <path class="fil4" d="M4.14283 2.70838c0,1.29363 -0.326579,2.57162 -0.7295,2.57162 -0.402969,0 -0.7295,-1.38007 -0.7295,-2.57162 0,-0.253646 0.326531,-0.45922 0.7295,-0.45922 0.402921,0 0.7295,0.205575 0.7295,0.45922z"/>
  <path class="fil5" d="M3.0312 2.31733c-0.208157,0.0808583 -0.347366,0.225327 -0.347366,0.390638 0,0.783386 0.141146,1.64816 0.352378,2.14875 0.205587,-0.482012 0.342402,-1.31187 0.342402,-2.14875 0,-0.165311 -0.139213,-0.30978 -0.347413,-0.390638z"/>
  <path class="fil5" d="M3.79546 2.31733c-0.208189,0.0808583 -0.347398,0.225327 -0.347398,0.390638 0,0.783386 0.141181,1.64816 0.352402,2.14875 0.205598,-0.482012 0.342366,-1.31187 0.342366,-2.14875 0,-0.165311 -0.139213,-0.30978 -0.34737,-0.390638z"/>
  <path class="fil3" d="M3.57367 1.90578c0.0444094,0.0214291 0.076878,0.0528858 0.0995748,0.0924921 0.0249843,0.0436024 0.0376063,0.0966496 0.0410197,0.156657 0.00011811,0.00205906 0.00415748,0.00159449 0.00848031,0.00529134 0.00628346,0.00537402 0.0126142,0.0107795 0.0183543,0.0184449 0.0200394,0.0267756 0.0228504,0.0582126 -0.0409646,0.105976 -0.0800551,0.0599213 -0.182067,0.0862362 -0.281587,0.0862362 -0.109555,0 -0.217169,-0.0319685 -0.289799,-0.086122 -0.0720669,-0.0537323 -0.0621772,-0.0904291 -0.0378189,-0.123106 0.0035315,-0.00473622 0.0082874,-0.0100591 0.013,-0.0153307 0.00627559,-0.00701969 0.0124409,-0.0139213 0.0127362,-0.0167323 0.00569685,-0.0539252 0.0198268,-0.101583 0.0449252,-0.140988 0.0223661,-0.0351063 0.0530157,-0.0631929 0.093622,-0.082811 0.000594488,-0.0448898 0.0165512,-0.0852677 0.0419016,-0.115587 0.0264173,-0.0315906 0.0631496,-0.052311 0.103709,-0.0561614 0.00518898,-0.000492126 0.00974016,-0.000744094 0.0136181,-0.000744094 0.00387795,0 0.00842913,0.000251969 0.0136181,0.000744094 0.0405591,0.00385039 0.0772953,0.0245709 0.103713,0.0561614 0.0253465,0.030315 0.0413031,0.0706929 0.0418976,0.115579z"/>
  <ellipse class="fil6" transform="matrix(0.572739 0.199458 -0.199458 0.572739 3.25362 2.06399)" rx="0.122917" ry="0.181248"/>
  <ellipse class="fil6" transform="matrix(-0.572739 0.199458 0.199458 0.572739 3.57304 2.06399)" rx="0.122917" ry="0.181248"/>
  <ellipse class="fil7" transform="matrix(0.354741 0.12354 -0.12354 0.354741 3.25362 2.06399)" rx="0.122917" ry="0.181248"/>
  <ellipse class="fil7" transform="matrix(-0.354741 0.12354 0.12354 0.354741 3.57304 2.06399)" rx="0.122917" ry="0.181248"/>
  <path class="fil8" d="M3.52464 1.54814c0,0 0.00276378,0.00274409 0.00766929,0.00753543 0.00477559,0.00446063 0.0119843,0.0128661 0.0187677,0.0228976 0.00361417,0.00501969 0.00702362,0.0107441 0.0102008,0.0171063 0.00366142,0.0061378 0.00595669,0.0132913 0.00910236,0.0204646 0.00214567,0.00743701 0.00499213,0.0151063 0.00630709,0.0232598 0.00192913,0.00805512 0.00248031,0.0164252 0.00335827,0.0248583 3.54331e-005,0.00841732 0.000437008,0.016937 -0.000645669,0.0252598 -0.00042126,0.00840157 -0.00241339,0.0164528 -0.00383071,0.0243898 -0.00234646,0.00766929 -0.00400787,0.0153898 -0.00707087,0.0221811 -0.00255906,0.00697244 -0.00549213,0.013378 -0.00870079,0.0190709 -0.0028622,0.00592126 -0.00620866,0.010878 -0.00916929,0.0153031 -0.00283071,0.00455906 -0.00557087,0.0082874 -0.00808268,0.0112008 -0.00485827,0.00594094 -0.00765748,0.00935039 -0.00765748,0.00935039 -0.0069685,0.00855512 -0.019563,0.0098189 -0.0280827,0.00285827 -0.00857087,-0.00698425 -0.00985433,-0.019563 -0.00286614,-0.0281339 0.000484252,-0.000598425 0.001,-0.00116142 0.0015315,-0.0016811l0.00126772 -0.00121654c0,0 0.00246063,-0.0023937 0.00678346,-0.00658661 0.00226378,-0.00201575 0.00479528,-0.00468898 0.00738976,-0.00800394 0.00274803,-0.00319291 0.0059252,-0.00680315 0.00868898,-0.0112283 0.00314567,-0.0042126 0.00608661,-0.00905512 0.0088189,-0.0144449 0.00320866,-0.00517323 0.00511811,-0.0112638 0.00793701,-0.0173189 0.00183071,-0.00634252 0.00440945,-0.0128465 0.00553937,-0.0197835 0.00175984,-0.00687402 0.00222441,-0.0140276 0.00311024,-0.0212165 1.9685e-005,-0.00720866 0.000515748,-0.0144921 -0.00038189,-0.0216142 -0.000267717,-0.00724016 -0.00199606,-0.0141063 -0.00306299,-0.0209449 -0.00202756,-0.00653937 -0.00327953,-0.0132323 -0.00590551,-0.0190197 -0.00214567,-0.00602362 -0.00461024,-0.0115512 -0.00733858,-0.0164409 -0.0023937,-0.00516142 -0.00518898,-0.00930315 -0.00762205,-0.0130591 -0.00227953,-0.00381102 -0.00465748,-0.0071063 -0.00695276,-0.00975197 -0.00429528,-0.00535827 -0.00674409,-0.00840551 -0.00674409,-0.00840551 -0.00177559,-0.00222441 -0.00140945,-0.00545669 0.00080315,-0.00724016 0.00206299,-0.00162598 0.00497638,-0.00146063 0.00683858,0.000354331z"/>
  <path class="fil8" d="M3.30202 1.54814c0,0 -0.00276378,0.00274409 -0.00766929,0.00753543 -0.00477559,0.00446063 -0.0119843,0.0128661 -0.0187677,0.0228976 -0.00361417,0.00501969 -0.00702362,0.0107441 -0.0102008,0.0171063 -0.00366142,0.0061378 -0.00595669,0.0132913 -0.00909843,0.0204646 -0.00214961,0.00743701 -0.00499606,0.0151063 -0.00631102,0.0232598 -0.00192913,0.00805512 -0.00248031,0.0164252 -0.00335827,0.0248583 -3.54331e-005,0.00841732 -0.000437008,0.016937 0.000645669,0.0252598 0.00042126,0.00840157 0.00241339,0.0164528 0.00383071,0.0243898 0.00234646,0.00766929 0.00400787,0.0153898 0.00707087,0.0221811 0.00255906,0.00697244 0.00549213,0.013378 0.00870079,0.0190709 0.0028622,0.00592126 0.00620866,0.010878 0.00916929,0.0153031 0.00283071,0.00455906 0.00557087,0.0082874 0.00808268,0.0112008 0.00485827,0.00594094 0.00765748,0.00935039 0.00765748,0.00935039 0.0069685,0.00855512 0.019563,0.0098189 0.0280827,0.00285827 0.00857087,-0.00698425 0.00985433,-0.019563 0.00286614,-0.0281339 -0.000484252,-0.000598425 -0.001,-0.00116142 -0.0015315,-0.0016811l-0.00126378 -0.00121654c0,0 -0.00246457,-0.0023937 -0.0067874,-0.00658661 -0.00226378,-0.00201575 -0.00479528,-0.00468898 -0.00738976,-0.00800394 -0.00274803,-0.00319291 -0.0059252,-0.00680315 -0.00868898,-0.0112283 -0.00314567,-0.0042126 -0.00608661,-0.00905512 -0.0088189,-0.0144449 -0.00320866,-0.00517323 -0.00511811,-0.0112638 -0.00793701,-0.0173189 -0.00183071,-0.00634252 -0.00440945,-0.0128465 -0.00553937,-0.0197835 -0.00175984,-0.00687402 -0.00222441,-0.0140276 -0.00311024,-0.0212165 -1.9685e-005,-0.00720866 -0.000515748,-0.0144921 0.00038189,-0.0216142 0.000267717,-0.00724016 0.00199606,-0.0141063 0.00306299,-0.0209449 0.00202756,-0.00653937 0.00327953,-0.0132323 0.00590551,-0.0190197 0.00214567,-0.00602362 0.00461024,-0.0115512 0.00733858,-0.0164409 0.0023937,-0.00516142 0.00519291,-0.00930315 0.00762205,-0.0130591 0.00227953,-0.00381102 0.00465748,-0.0071063 0.00695276,-0.00975197 0.00429528,-0.00535827 0.00674409,-0.00840551 0.00674409,-0.00840551 0.00177559,-0.00222441 0.00140945,-0.00545669 -0.00080315,-0.00724016 -0.00206299,-0.00162598 -0.00497638,-0.00146063 -0.00683858,0.000354331z"/>
 </g>
</svg>
